<?xml version="1.0" encoding="UTF-8" ?>
<!DOCTYPE svg PUBLIC "-//W3C//DTD SVG 1.1//EN" "http://www.w3.org/Graphics/SVG/1.1/DTD/svg11.dtd">
<svg width="2126pt" height="626pt" viewBox="0 0 2126 626" version="1.1" xmlns="http://www.w3.org/2000/svg">
<g id="#ffffffff">
</g>
<g id="#d01e3eff">
<path fill="#d01e3e" opacity="1.00" d=" M 198.95 2.06 C 224.31 0.34 250.29 0.35 274.95 7.30 C 292.97 12.14 310.15 21.33 322.68 35.36 C 338.21 52.88 344.66 76.96 343.97 100.02 C 344.75 120.88 339.69 141.30 335.47 161.57 C 325.40 210.39 315.18 259.18 305.10 308.00 C 301.23 326.85 297.06 345.65 293.50 364.56 C 282.48 370.58 270.54 374.63 258.61 378.44 C 234.67 385.57 209.90 389.66 185.05 391.87 C 178.01 392.23 171.01 393.22 163.95 392.93 C 152.32 394.06 140.60 393.78 128.94 393.52 C 122.92 392.64 116.80 393.22 110.79 392.25 C 93.06 390.84 75.37 387.47 58.65 381.31 C 38.13 373.82 18.62 360.17 9.06 339.98 C 2.24 326.82 0.40 311.77 0.81 297.14 C 1.53 274.85 7.27 252.62 17.89 232.98 C 26.06 217.54 37.90 204.38 51.04 193.00 C 65.42 181.31 81.59 171.94 98.64 164.72 C 130.90 151.02 165.48 143.78 200.06 138.94 C 199.11 148.57 196.92 158.04 195.35 167.59 C 192.99 177.24 191.03 187.57 184.63 195.50 C 180.85 200.37 174.43 201.41 169.27 204.22 C 155.50 210.61 142.33 218.76 131.70 229.69 C 119.17 242.54 111.38 259.69 109.36 277.49 C 108.03 288.69 108.38 301.19 115.29 310.65 C 122.66 320.56 135.27 324.35 147.00 325.85 C 163.49 327.13 180.67 326.47 196.10 319.93 C 209.40 257.31 222.16 194.57 235.30 131.91 C 237.53 120.15 241.54 107.71 237.24 95.92 C 234.68 88.02 227.39 82.69 219.75 80.22 C 206.65 75.76 192.63 75.64 178.96 76.16 C 169.94 76.95 160.90 77.69 152.05 79.66 C 129.41 83.79 107.90 92.18 86.39 100.09 C 83.90 82.89 80.30 65.29 83.83 47.96 C 85.69 37.29 92.18 27.13 102.11 22.36 C 111.73 18.00 121.91 15.06 132.09 12.36 C 153.99 6.90 176.38 2.92 198.95 2.06 Z" />
<path fill="#d01e3e" opacity="1.00" d=" M 832.82 2.77 C 839.15 1.72 845.59 2.44 851.93 1.55 C 868.81 0.79 885.83 0.76 902.54 3.58 C 921.44 6.42 940.23 12.71 955.61 24.33 C 967.88 33.40 977.30 46.16 982.62 60.44 C 987.33 73.39 989.45 87.24 988.93 101.00 C 989.44 116.20 986.80 131.28 983.70 146.11 C 968.64 218.44 953.59 290.78 938.62 363.13 C 937.73 366.05 934.20 366.51 931.89 367.89 C 897.35 383.26 859.53 389.70 822.05 392.49 C 815.72 393.24 809.33 392.52 803.02 393.45 C 780.01 394.25 756.89 393.32 734.17 389.50 C 715.35 385.91 696.38 380.46 680.42 369.52 C 669.08 362.05 659.44 351.72 653.73 339.33 C 644.95 321.65 644.44 301.19 647.00 282.01 C 650.89 253.71 662.88 226.16 682.88 205.53 C 702.92 183.83 729.65 169.48 757.12 159.35 C 785.50 149.12 815.20 143.09 845.01 138.94 C 844.92 142.65 844.05 146.27 843.48 149.92 C 841.09 162.59 839.49 175.60 834.41 187.57 C 832.11 192.75 828.72 197.96 823.30 200.25 C 806.48 207.23 789.99 216.08 777.15 229.23 C 764.34 242.12 756.40 259.48 754.33 277.49 C 753.05 288.91 753.35 301.78 760.73 311.25 C 768.41 321.02 781.17 324.58 793.00 325.96 C 809.17 327.02 826.00 326.39 841.09 319.90 C 855.03 253.95 868.54 187.90 882.33 121.92 C 884.41 112.26 885.64 101.39 880.54 92.43 C 876.00 83.78 866.04 80.05 857.03 78.10 C 835.18 73.88 812.62 76.23 791.03 80.88 C 770.52 85.22 750.99 92.92 731.36 100.06 C 729.51 87.43 727.21 74.79 727.30 61.98 C 727.74 53.61 728.34 44.92 732.37 37.38 C 736.01 29.38 743.22 23.35 751.43 20.41 C 766.85 14.54 782.93 10.57 799.12 7.47 C 810.26 5.29 821.50 3.62 832.82 2.77 Z" />
<path fill="#d01e3e" opacity="1.00" d=" M 1476.76 9.77 C 1495.83 3.49 1516.01 0.98 1536.04 1.24 C 1570.95 1.77 1606.60 10.60 1635.18 31.34 C 1632.90 37.27 1628.81 42.32 1625.84 47.92 C 1620.84 55.81 1616.78 64.44 1610.20 71.20 C 1603.47 78.46 1594.17 83.84 1584.13 84.29 C 1576.62 85.29 1569.62 81.89 1562.45 80.38 C 1549.34 77.46 1535.22 76.45 1522.53 81.63 C 1514.89 84.95 1507.48 89.64 1502.72 96.63 C 1498.25 102.55 1495.36 109.67 1494.63 117.07 C 1492.75 126.67 1496.68 136.64 1503.25 143.64 C 1511.02 151.85 1521.00 157.49 1530.62 163.26 C 1546.42 172.32 1562.48 181.62 1575.20 194.86 C 1589.37 209.43 1597.42 229.69 1596.94 250.02 C 1597.52 271.90 1592.10 293.79 1582.24 313.28 C 1573.53 330.57 1560.75 345.61 1545.75 357.77 C 1529.37 370.86 1510.15 380.13 1490.01 385.81 C 1447.77 397.36 1402.17 396.17 1360.58 382.42 C 1349.76 378.57 1339.09 374.07 1329.58 367.57 C 1327.63 366.08 1325.14 365.06 1323.85 362.90 C 1332.19 348.34 1341.03 334.04 1349.71 319.67 C 1354.48 311.28 1363.12 305.10 1372.70 303.69 C 1380.72 302.15 1388.89 304.06 1396.54 306.47 C 1408.36 309.82 1420.75 310.91 1433.02 310.38 C 1445.74 309.82 1458.27 304.25 1466.91 294.84 C 1473.38 288.08 1477.48 279.23 1479.02 270.04 C 1479.83 262.93 1479.68 255.33 1476.13 248.92 C 1471.74 240.33 1463.76 234.50 1455.98 229.19 C 1442.11 220.36 1427.25 212.93 1414.60 202.31 C 1398.72 189.90 1387.52 171.55 1384.60 151.52 C 1378.84 111.49 1394.49 69.47 1423.75 41.79 C 1438.47 27.00 1457.14 16.57 1476.76 9.77 Z" />
<path fill="#d01e3e" opacity="1.00" d=" M 1044.16 31.07 C 1090.16 11.53 1140.40 4.19 1190.03 2.35 C 1217.86 1.58 1246.09 2.81 1273.07 10.21 C 1291.82 15.37 1310.09 24.15 1323.72 38.30 C 1337.10 52.03 1344.77 70.77 1346.26 89.78 C 1348.83 111.16 1342.94 132.20 1338.93 153.01 C 1322.88 232.30 1306.57 311.55 1290.66 390.85 C 1259.43 391.11 1228.21 390.89 1196.98 390.98 C 1193.65 391.05 1190.00 391.02 1187.38 388.68 C 1182.57 385.05 1181.75 378.58 1181.48 372.99 C 1181.97 363.46 1184.68 354.24 1186.32 344.88 C 1201.13 270.85 1215.90 196.81 1230.72 122.79 C 1233.25 112.12 1233.11 99.78 1226.24 90.68 C 1218.81 81.42 1206.33 78.08 1194.92 77.78 C 1178.89 77.09 1162.73 79.44 1147.53 84.53 C 1137.52 132.63 1128.02 180.89 1117.64 228.93 C 1114.94 241.36 1112.39 253.83 1108.98 266.08 C 1105.77 277.80 1100.98 289.44 1092.69 298.52 C 1086.99 304.56 1079.77 308.97 1072.13 312.11 C 1040.95 325.08 1009.63 337.70 978.21 350.07 C 998.63 252.36 1018.48 154.53 1038.71 56.78 C 1040.54 48.21 1041.98 39.56 1044.16 31.07 Z" />
<path fill="#d01e3e" opacity="1.00" d=" M 364.99 8.08 C 389.66 8.04 414.33 8.04 438.99 8.09 C 453.36 9.05 468.88 14.20 477.32 26.60 C 483.35 35.11 482.96 46.00 482.93 55.95 C 483.84 65.60 483.95 75.31 484.00 85.00 C 484.93 93.31 484.85 101.68 484.98 110.03 C 485.90 118.99 485.94 128.02 485.99 137.02 C 486.89 145.66 486.88 154.35 486.97 163.03 C 488.01 172.33 487.80 181.72 488.09 191.06 C 489.28 201.31 488.38 211.67 489.52 221.92 C 489.98 230.95 489.86 239.99 489.94 249.03 C 491.84 246.76 492.24 243.75 493.38 241.10 C 500.34 223.29 508.80 206.13 516.54 188.66 C 537.83 141.80 559.14 94.96 580.38 48.08 C 585.68 35.60 593.53 23.88 604.37 15.57 C 610.58 10.99 618.17 7.89 625.98 8.06 C 653.41 8.11 680.83 7.98 708.25 8.12 C 707.53 10.58 706.24 12.80 704.97 15.01 C 695.71 33.10 686.79 51.38 677.26 69.34 C 668.96 85.67 660.89 102.12 652.29 118.30 C 627.88 166.81 602.88 215.02 578.44 263.51 C 569.37 280.58 560.96 298.00 552.09 315.17 C 542.54 333.07 533.91 351.45 524.35 369.34 C 519.62 378.26 510.90 384.82 501.08 387.08 C 496.19 388.41 491.09 387.95 486.09 387.96 C 459.55 388.09 433.02 387.94 406.48 387.94 C 393.94 271.29 380.82 154.70 368.09 38.07 C 367.08 28.07 365.60 18.11 364.99 8.08 Z" />
<path fill="#d01e3e" opacity="1.00" d=" M 1171.26 425.07 C 1179.20 425.05 1187.15 425.06 1195.10 425.10 C 1191.79 442.74 1187.76 460.26 1184.27 477.87 C 1195.08 473.11 1207.25 470.32 1219.00 472.87 C 1225.37 474.16 1231.79 477.32 1235.28 483.05 C 1239.84 489.81 1239.45 498.47 1238.32 506.19 C 1233.10 531.05 1228.15 555.97 1222.80 580.80 C 1214.85 580.70 1206.91 580.76 1198.97 580.77 C 1204.06 555.11 1209.62 529.54 1214.76 503.89 C 1215.54 499.49 1215.35 494.31 1211.98 490.97 C 1207.88 486.69 1201.46 486.52 1195.95 487.00 C 1190.89 487.75 1185.21 488.70 1181.27 492.08 C 1175.05 521.64 1169.25 551.30 1162.80 580.81 C 1154.85 580.69 1146.90 580.76 1138.96 580.76 C 1149.68 528.85 1160.46 476.96 1171.26 425.07 Z" />
<path fill="#d01e3e" opacity="1.00" d=" M 1773.00 425.07 C 1781.01 425.07 1789.01 425.07 1797.03 425.06 C 1793.27 442.64 1789.49 460.23 1786.02 477.86 C 1797.45 472.73 1810.62 470.05 1822.95 473.38 C 1829.96 475.13 1836.35 480.09 1838.99 486.93 C 1841.42 493.36 1841.26 500.43 1839.84 507.07 C 1834.76 531.63 1829.69 556.19 1824.62 580.75 C 1816.75 580.76 1808.87 580.72 1801.01 580.78 C 1802.10 571.38 1804.67 562.20 1806.32 552.89 C 1809.52 538.09 1812.44 523.23 1815.59 508.42 C 1816.22 504.36 1817.74 500.13 1816.35 496.06 C 1815.27 489.95 1808.72 486.71 1803.00 486.86 C 1796.63 486.42 1790.33 488.11 1784.56 490.65 C 1783.19 491.12 1782.93 492.67 1782.58 493.86 C 1776.57 522.82 1770.63 551.81 1764.65 580.77 C 1756.75 580.74 1748.85 580.74 1740.96 580.77 C 1744.75 558.70 1749.99 536.88 1754.30 514.90 C 1760.55 484.96 1766.65 454.99 1773.00 425.07 Z" />
<path fill="#d01e3e" opacity="1.00" d=" M 2100.98 425.07 C 2108.92 425.11 2116.87 425.00 2124.83 425.14 C 2113.94 476.05 2103.62 527.09 2092.94 578.05 C 2092.67 579.00 2092.33 579.93 2091.92 580.83 C 2084.27 580.66 2076.62 580.76 2068.98 580.77 C 2071.54 564.08 2075.71 547.64 2078.88 531.04 C 2086.30 495.73 2093.44 460.36 2100.98 425.07 Z" />
<path fill="#d01e3e" opacity="1.00" d=" M 1303.54 472.58 C 1312.74 471.24 1322.60 471.67 1330.99 476.04 C 1338.13 479.65 1343.48 486.42 1345.72 494.07 C 1348.44 502.75 1348.52 512.08 1347.03 520.99 C 1344.95 534.96 1340.55 548.84 1332.52 560.57 C 1326.81 569.15 1318.43 576.03 1308.77 579.68 C 1300.55 582.46 1291.61 583.53 1283.02 582.02 C 1273.42 580.75 1264.33 574.96 1259.82 566.28 C 1253.97 554.98 1254.29 541.65 1256.57 529.44 C 1259.43 514.47 1264.83 499.43 1275.21 487.99 C 1282.62 479.90 1292.67 474.29 1303.54 472.58 M 1307.22 487.22 C 1298.18 488.66 1291.91 496.46 1288.23 504.29 C 1282.67 516.43 1279.84 529.67 1278.41 542.89 C 1277.53 547.40 1278.57 552.01 1279.43 556.45 C 1280.73 562.52 1286.84 566.80 1292.98 566.31 C 1299.64 566.76 1305.80 562.90 1309.86 557.87 C 1315.33 551.09 1318.01 542.65 1320.49 534.43 C 1322.86 525.12 1324.59 515.62 1325.12 506.02 C 1324.96 501.32 1324.43 496.29 1321.76 492.29 C 1318.67 487.66 1312.44 486.14 1307.22 487.22 Z" />
<path fill="#d01e3e" opacity="1.00" d=" M 1394.03 481.24 C 1410.12 470.67 1430.76 470.05 1449.00 474.47 C 1453.31 475.47 1457.38 477.26 1461.37 479.18 C 1454.72 513.17 1447.45 547.04 1440.55 580.97 C 1438.54 591.55 1434.35 601.94 1427.09 610.02 C 1421.14 616.29 1413.48 620.91 1405.11 623.11 C 1399.55 624.73 1393.76 625.11 1388.05 625.82 C 1384.63 626.38 1381.31 625.23 1377.96 624.86 C 1369.28 623.83 1360.41 622.18 1352.77 617.72 C 1354.99 613.32 1357.90 609.32 1360.28 605.02 C 1360.81 604.14 1361.52 602.38 1362.87 603.33 C 1372.48 607.67 1383.32 609.11 1393.76 607.75 C 1400.94 606.21 1407.98 602.24 1411.79 595.78 C 1415.43 590.60 1416.49 584.21 1417.76 578.15 C 1406.44 582.32 1393.46 583.37 1382.13 578.67 C 1373.77 575.25 1367.77 567.55 1365.06 559.10 C 1361.76 548.37 1362.99 536.90 1365.47 526.14 C 1369.76 508.70 1378.52 491.22 1394.03 481.24 M 1411.28 489.29 C 1403.94 493.60 1398.80 500.77 1395.18 508.32 C 1390.87 517.67 1388.46 527.79 1387.02 537.95 C 1386.42 544.96 1385.87 552.45 1388.87 559.02 C 1393.16 567.06 1403.64 569.38 1411.92 567.20 C 1414.91 566.38 1418.59 566.26 1420.76 563.78 C 1425.85 538.51 1431.46 513.33 1436.37 488.02 C 1428.31 484.95 1418.91 485.11 1411.28 489.29 Z" />
<path fill="#d01e3e" opacity="1.00" d=" M 1497.50 484.40 C 1506.69 476.39 1518.80 471.76 1531.01 471.95 C 1539.82 471.78 1549.06 474.20 1555.65 480.30 C 1560.80 485.21 1563.93 491.99 1564.98 498.98 C 1566.88 508.18 1565.05 517.55 1563.52 526.66 C 1541.05 529.94 1518.52 532.82 1496.05 536.11 C 1495.30 544.63 1495.87 554.23 1502.17 560.72 C 1506.22 564.22 1511.67 566.06 1517.01 566.11 C 1527.26 566.49 1537.46 563.99 1546.79 559.85 C 1548.02 564.78 1548.43 569.88 1549.74 574.80 C 1539.06 580.26 1526.91 582.35 1515.01 582.72 C 1507.14 582.65 1499.04 581.66 1491.97 577.96 C 1483.01 573.87 1476.64 565.10 1474.51 555.60 C 1472.02 546.19 1473.05 536.33 1474.74 526.89 C 1478.15 511.03 1485.19 495.33 1497.50 484.40 M 1511.81 493.20 C 1503.01 501.05 1499.01 512.72 1496.70 523.96 C 1512.05 521.54 1527.48 519.64 1542.81 517.09 C 1544.43 510.85 1544.72 504.19 1543.51 497.86 C 1542.47 492.65 1538.32 487.92 1532.99 486.96 C 1525.46 485.35 1517.25 487.75 1511.81 493.20 Z" />
<path fill="#d01e3e" opacity="1.00" d=" M 1595.89 483.88 C 1606.57 472.79 1623.43 469.92 1638.03 473.17 C 1643.07 474.54 1648.46 476.01 1652.29 479.81 C 1649.64 483.99 1647.16 488.30 1644.18 492.26 C 1636.66 487.40 1626.32 485.83 1618.23 490.15 C 1610.56 493.99 1606.11 505.03 1611.73 512.30 C 1616.93 517.81 1624.41 520.19 1630.65 524.26 C 1634.82 526.97 1638.73 530.61 1640.39 535.44 C 1643.08 543.24 1641.59 551.95 1638.25 559.31 C 1634.09 568.04 1626.50 575.03 1617.54 578.64 C 1606.36 583.32 1593.67 583.74 1581.96 580.97 C 1577.14 579.47 1572.05 578.17 1568.13 574.82 C 1571.22 570.02 1574.19 565.14 1577.16 560.26 C 1582.25 564.11 1588.75 565.24 1594.95 565.99 C 1600.51 565.88 1606.37 564.34 1610.43 560.31 C 1615.52 555.69 1618.28 547.92 1615.69 541.32 C 1613.05 535.60 1606.72 533.46 1601.72 530.37 C 1595.38 527.05 1588.91 522.36 1586.96 515.09 C 1583.93 504.08 1588.22 492.00 1595.89 483.88 Z" />
<path fill="#d01e3e" opacity="1.00" d=" M 1682.23 488.00 C 1695.06 472.99 1718.06 467.25 1736.02 476.05 C 1737.82 477.17 1740.40 477.74 1741.46 479.69 C 1738.98 483.92 1736.24 488.00 1733.66 492.16 C 1729.75 490.04 1725.62 487.96 1721.08 487.91 C 1711.77 487.86 1703.01 493.49 1698.22 501.32 C 1691.48 511.58 1688.47 523.85 1687.03 535.91 C 1686.71 542.00 1686.44 548.29 1688.65 554.10 C 1690.56 560.68 1697.14 565.60 1704.06 565.09 C 1709.11 564.60 1714.31 563.54 1718.52 560.53 C 1719.96 560.89 1719.46 562.86 1719.89 563.94 C 1720.48 567.55 1720.79 571.22 1721.85 574.74 C 1714.68 580.64 1705.02 582.50 1695.96 582.72 C 1684.48 582.86 1673.06 576.43 1668.05 565.96 C 1663.50 558.17 1662.73 548.98 1662.63 540.16 C 1663.65 521.41 1669.60 502.23 1682.23 488.00 Z" />
<path fill="#d01e3e" opacity="1.00" d=" M 1905.53 472.56 C 1915.17 471.17 1925.61 471.79 1934.21 476.79 C 1941.66 481.26 1946.58 489.09 1948.38 497.50 C 1951.27 510.66 1948.97 524.35 1945.11 537.06 C 1940.66 552.64 1931.89 567.98 1917.57 576.37 C 1906.70 582.43 1893.59 584.18 1881.48 581.42 C 1876.26 579.95 1871.09 577.68 1867.26 573.74 C 1859.48 566.52 1856.56 555.35 1857.06 545.02 C 1856.60 533.17 1859.48 521.44 1863.59 510.41 C 1868.42 497.15 1877.10 484.76 1889.67 477.87 C 1894.58 475.16 1899.99 473.43 1905.53 472.56 M 1909.13 487.21 C 1902.78 488.27 1897.21 492.38 1893.75 497.72 C 1887.66 506.87 1884.73 517.64 1882.30 528.23 C 1880.84 536.30 1879.21 544.51 1880.21 552.73 C 1881.06 557.63 1883.29 562.90 1888.08 565.10 C 1895.47 567.94 1904.53 565.79 1909.83 559.87 C 1916.59 552.73 1919.68 543.16 1922.26 533.88 C 1925.00 523.20 1927.23 512.19 1926.32 501.10 C 1926.15 497.10 1924.47 493.19 1921.83 490.22 C 1918.42 487.24 1913.49 486.32 1909.13 487.21 Z" />
<path fill="#d01e3e" opacity="1.00" d=" M 2013.53 472.59 C 2022.94 471.31 2033.09 471.65 2041.60 476.35 C 2048.36 479.77 2053.27 486.25 2055.54 493.40 C 2059.41 504.56 2058.21 516.71 2055.91 528.07 C 2052.22 544.55 2045.36 561.28 2031.97 572.24 C 2022.51 579.99 2009.97 583.27 1997.89 582.62 C 1989.02 582.02 1979.89 578.92 1973.90 572.08 C 1966.73 563.94 1964.74 552.55 1965.15 542.02 C 1965.72 533.18 1967.19 524.36 1970.01 515.95 C 1973.48 505.22 1978.46 494.63 1986.67 486.68 C 1993.76 479.16 2003.34 474.25 2013.53 472.59 M 2017.22 487.22 C 2007.95 488.80 2001.71 496.91 1997.94 504.93 C 1993.37 515.80 1990.40 527.31 1988.90 539.00 C 1988.42 544.79 1988.02 550.75 1989.45 556.44 C 1990.89 562.02 1996.08 566.47 2001.98 566.28 C 2008.19 566.94 2014.33 564.05 2018.47 559.50 C 2022.92 555.14 2025.22 549.21 2027.71 543.63 C 2031.63 532.14 2034.14 520.16 2035.10 508.06 C 2035.14 502.95 2034.85 497.51 2032.26 492.98 C 2029.36 487.84 2022.70 486.04 2017.22 487.22 Z" />
</g>
</svg>
